<?xml version="1.0" standalone="no"?><!DOCTYPE svg PUBLIC "-//W3C//DTD SVG 1.1//EN" "http://www.w3.org/Graphics/SVG/1.1/DTD/svg11.dtd"><svg t="1740583771133" class="icon" viewBox="0 0 1024 1024" version="1.1" xmlns="http://www.w3.org/2000/svg" p-id="2470" xmlns:xlink="http://www.w3.org/1999/xlink" width="200" height="200"><path d="M699.52 935.04H313.6c-28.16 0-51.2-23.04-51.2-51.2V648.96c0-28.16 23.04-51.2 51.2-51.2h385.92c28.16 0 51.2 23.04 51.2 51.2v234.88c0 28.16-23.04 51.2-51.2 51.2z" fill="#FFFFFF" p-id="2471"></path><path d="M699.52 947.84H313.6c-35.2 0-64-28.8-64-64V648.96c0-35.2 28.8-64 64-64h385.92c35.2 0 64 28.8 64 64v234.88c0 35.84-28.8 64-64 64zM313.6 611.2c-21.12 0-38.4 17.28-38.4 38.4v234.88c0 21.12 17.28 38.4 38.4 38.4h385.92c21.12 0 38.4-17.28 38.4-38.4V649.6c0-21.12-17.28-38.4-38.4-38.4H313.6z" fill="#409EFF" p-id="2472"></path><path d="M508.8 182.4c-96.64 0-176 79.36-176 175.36V537.6h352V357.76c0-96-79.36-175.36-176-175.36z" fill="#FFFFFF" p-id="2473"></path><path d="M697.6 550.4H320V357.76c0-103.68 84.48-188.16 188.8-188.16s188.8 84.48 188.8 188.16V550.4z m-352-25.6H672V357.76c0-89.6-72.96-162.56-163.2-162.56s-163.2 72.96-163.2 162.56V524.8z" fill="#409EFF" p-id="2474"></path><path d="M449.92 537.6h112v60.8h-112z" fill="#FFFFFF" p-id="2475"></path><path d="M575.36 611.2H437.12v-86.4h137.6v86.4z m-112.64-25.6h86.4v-35.2h-86.4v35.2z" fill="#409EFF" p-id="2476"></path><path d="M708.48 450.56c-12.8 0-23.04-10.24-23.04-23.04v-38.4c0-12.8 10.24-23.04 23.04-23.04s23.04 10.24 23.04 23.04v38.4c0 12.8-10.24 23.04-23.04 23.04z" fill="#FFFFFF" p-id="2477"></path><path d="M708.48 463.36c-19.84 0-35.84-16-35.84-35.84v-38.4c0-19.84 16-35.84 35.84-35.84s35.84 16 35.84 35.84v38.4c0 19.84-16 35.84-35.84 35.84z m0-83.84c-5.76 0-10.24 4.48-10.24 10.24v38.4c0 5.76 4.48 10.24 10.24 10.24s10.24-4.48 10.24-10.24v-38.4c0-5.76-4.48-10.24-10.24-10.24z" fill="#409EFF" p-id="2478"></path><path d="M305.92 440.32c-12.8 0-23.04-10.24-23.04-23.04v-38.4c0-12.8 10.24-23.04 23.04-23.04s23.04 10.24 23.04 23.04v38.4c0 12.8-10.88 23.04-23.04 23.04z" fill="#FFFFFF" p-id="2479"></path><path d="M305.92 453.12c-19.84 0-35.84-16-35.84-35.84v-38.4c0-19.84 16-35.84 35.84-35.84s35.84 16 35.84 35.84v38.4c0 19.84-16.64 35.84-35.84 35.84z m0-83.84c-5.76 0-10.24 4.48-10.24 10.24v38.4c0 5.76 4.48 10.24 10.24 10.24s10.24-4.48 10.24-10.24v-38.4c0-5.76-5.12-10.24-10.24-10.24z" fill="#409EFF" p-id="2480"></path><path d="M789.12 782.72h-25.6c-7.04 0-12.8-5.76-12.8-12.8v-46.08c0-14.08-2.56-25.6 11.52-25.6h26.88c14.08 0 25.6 11.52 25.6 25.6v33.28c0 14.08-11.52 25.6-25.6 25.6z" fill="#FFFFFF" p-id="2481"></path><path d="M789.12 795.52h-25.6c-14.08 0-25.6-11.52-25.6-25.6V718.72c0-8.96-0.64-19.2 6.4-26.24 4.48-4.48 10.24-6.4 17.92-6.4h26.88c21.12 0 38.4 17.28 38.4 38.4v33.28c0 20.48-17.28 37.76-38.4 37.76z m-26.24-84.48v58.88h25.6c7.04 0 12.8-5.76 12.8-12.8v-33.28c0-7.04-5.76-12.8-12.8-12.8h-25.6z" fill="#409EFF" p-id="2482"></path><path d="M810.24 753.28l-0.64-25.6v12.8-12.8c5.12 0 48-3.2 48-58.24V473.6h25.6v196.48c0 81.28-72.32 83.2-72.96 83.2z" fill="#409EFF" p-id="2483"></path><path d="M222.08 782.72h25.6c7.04 0 12.8-5.76 12.8-12.8v-58.88c0-7.04-5.76-12.8-12.8-12.8h-25.6c-14.08 0-25.6 11.52-25.6 25.6v33.28c0 14.08 11.52 25.6 25.6 25.6z" fill="#FFFFFF" p-id="2484"></path><path d="M247.68 795.52h-25.6c-21.12 0-38.4-17.28-38.4-38.4v-33.28c0-21.12 17.28-38.4 38.4-38.4h25.6c14.08 0 25.6 11.52 25.6 25.6v58.88c0 14.08-11.52 25.6-25.6 25.6z m-25.6-84.48c-7.04 0-12.8 5.76-12.8 12.8v33.28c0 7.04 5.76 12.8 12.8 12.8h25.6v-58.88h-25.6z m290.56-551.68c-23.68 0-43.52-19.2-43.52-43.52s19.2-43.52 43.52-43.52 43.52 19.2 43.52 43.52-19.84 43.52-43.52 43.52z m0-61.44c-9.6 0-17.92 8.32-17.92 17.92s8.32 17.92 17.92 17.92 17.92-8.32 17.92-17.92-8.32-17.92-17.92-17.92z" fill="#409EFF" p-id="2485"></path><path d="M499.2 153.6h25.6v32h-25.6z" fill="#409EFF" p-id="2486"></path><path d="M437.12 325.12a69.12 69.12 0 1 0 138.24 0 69.12 69.12 0 1 0-138.24 0z" fill="#FFFFFF" p-id="2487"></path><path d="M506.24 407.04c-44.8 0-81.92-36.48-81.92-81.92s36.48-81.92 81.92-81.92 81.92 36.48 81.92 81.92-37.12 81.92-81.92 81.92z m0-138.24c-30.72 0-56.32 24.96-56.32 56.32s24.96 56.32 56.32 56.32 56.32-24.96 56.32-56.32-25.6-56.32-56.32-56.32z" fill="#409EFF" p-id="2488"></path><path d="M587.52 452.48a10.24 10.24 0 1 0 20.48 0 10.24 10.24 0 1 0-20.48 0z" fill="#409EFF" p-id="2489"></path><path d="M416 678.4h-83.2c-7.04 0-12.8-5.76-12.8-12.8s5.76-12.8 12.8-12.8H416c7.04 0 12.8 5.76 12.8 12.8s-5.76 12.8-12.8 12.8z" fill="#409EFF" p-id="2490"></path><path d="M490.24 325.12a16 16 0 1 0 32 0 16 16 0 1 0-32 0z" fill="#409EFF" p-id="2491"></path><path d="M870.4 492.8c-27.52 0-51.2-21.76-51.2-46.72 0-7.04 5.76-12.8 12.8-12.8s12.8 5.76 12.8 12.8c0 10.88 12.16 21.12 25.6 21.12s25.6-10.24 25.6-21.12c0-7.04 5.76-12.8 12.8-12.8s12.8 5.76 12.8 12.8c0 24.96-23.68 46.72-51.2 46.72z" fill="#409EFF" p-id="2492"></path><path d="M188.16 753.28c-0.64 0-72.96-2.56-72.96-83.84V473.6h25.6v196.48c0 55.04 42.88 57.6 48 58.24l-0.64 24.96z" fill="#409EFF" p-id="2493"></path><path d="M124.8 492.8c-27.52 0-51.2-21.76-51.2-46.72 0-7.04 5.76-12.8 12.8-12.8s12.8 5.76 12.8 12.8c0 10.88 12.16 21.12 25.6 21.12s25.6-10.24 25.6-21.12c0-7.04 5.76-12.8 12.8-12.8s12.8 5.76 12.8 12.8c0 24.96-23.04 46.72-51.2 46.72z" fill="#409EFF" p-id="2494"></path><path d="M552.96 856.32a23.68 23.68 0 1 0 47.36 0 23.68 23.68 0 1 0-47.36 0z" fill="#FFFFFF" p-id="2495"></path><path d="M576.64 892.8c-19.84 0-36.48-16-36.48-36.48s16-36.48 36.48-36.48 36.48 16 36.48 36.48-16.64 36.48-36.48 36.48z m0-46.72c-5.76 0-10.88 4.48-10.88 10.88s4.48 10.88 10.88 10.88 10.88-4.48 10.88-10.88-5.12-10.88-10.88-10.88z" fill="#409EFF" p-id="2496"></path><path d="M642.56 856.32a23.68 23.68 0 1 0 47.36 0 23.68 23.68 0 1 0-47.36 0z" fill="#FFFFFF" p-id="2497"></path><path d="M666.24 892.8c-19.84 0-36.48-16-36.48-36.48s16-36.48 36.48-36.48 36.48 16 36.48 36.48-16.64 36.48-36.48 36.48z m0-46.72c-5.76 0-10.88 4.48-10.88 10.88s4.48 10.88 10.88 10.88 10.88-4.48 10.88-10.88-5.12-10.88-10.88-10.88z" fill="#409EFF" p-id="2498"></path></svg>